<svg width="159" height="95" viewBox="0 0 159 95" fill="none" xmlns="http://www.w3.org/2000/svg">
<path d="M22.9324 43.816V37.4251H9.7578V24.8801H19.253V18.4892H9.7578V7.48264H22.1015V1.09175H2.39904V43.816H22.9324Z" fill="#6B8293"/>
<path d="M36.2649 7.12759H38.876C42.8522 7.12759 44.3358 8.60696 44.3358 13.696C44.3358 18.785 42.8522 20.2644 38.876 20.2644H36.2649V7.12759ZM36.2649 26.3003C37.5705 26.3003 39.1134 26.2411 40.063 26.1227L45.2853 43.816H52.7628L46.5315 24.4658C49.024 23.3415 51.6945 20.5603 51.6945 13.696C51.6945 4.58307 47.4811 1.09175 39.2321 1.09175H28.9061V43.816H36.2649V26.3003Z" fill="#6B8293"/>
<path d="M65.3632 43.816V17.1281H65.4819L74.8584 43.816H81.2676V1.09175H74.621V25.531H74.5023L65.5412 1.09175H58.7166V43.816H65.3632Z" fill="#6B8293"/>
<path d="M109.06 43.816V37.4251H95.8858V24.8801H105.381V18.4892H95.8858V7.48264H108.23V1.09175H88.527V43.816H109.06Z" fill="#6B8293"/>
<path d="M134.621 10.8556C133.968 4.81977 130.407 0.5 124.413 0.5C117.173 0.5 113.019 4.34637 113.019 11.1515C113.019 23.4007 127.974 25.6493 127.974 34.1113C127.974 36.6559 126.253 38.0169 123.701 38.0169C121.327 38.0169 119.606 35.8866 119.31 31.5668L112.307 32.5728C112.604 38.9637 116.52 44.4078 123.345 44.4078C130.229 44.4078 134.977 40.5022 134.977 33.4604C134.977 21.8621 120.022 18.3708 120.022 11.0923C120.022 8.42944 121.327 6.89089 123.701 6.89089C125.363 6.89089 127.321 7.95604 127.618 11.6249L134.621 10.8556Z" fill="#6B8293"/>
<path d="M144.02 43.816H151.379V7.48264H158.5V1.09175H136.898V7.48264H144.02V43.816Z" fill="#6B8293"/>
<path d="M22.8137 60.9478C22.1609 54.912 18.6002 50.5922 12.6064 50.5922C5.36628 50.5922 1.21214 54.4386 1.21214 61.2437C1.21214 73.4929 16.1671 75.7416 16.1671 84.2036C16.1671 86.7481 14.446 88.1091 11.8942 88.1091C9.52042 88.1091 7.79942 85.9788 7.5027 81.659L0.5 82.665C0.796724 89.0559 4.71349 94.5 11.5381 94.5C18.4222 94.5 23.1697 90.5945 23.1697 83.5527C23.1697 71.9544 8.21483 68.4631 8.21483 61.1845C8.21483 58.5217 9.52042 56.9831 11.8942 56.9831C13.5559 56.9831 15.5143 58.0483 15.811 61.7171L22.8137 60.9478Z" fill="#6B8293"/>
<path d="M36.2649 93.9083V74.9723H44.0984V93.9083H51.4572V51.184H44.0984V68.5814H36.2649V51.184H28.9061V93.9083H36.2649Z" fill="#6B8293"/>
<path d="M68.2711 59.7052H68.3898L71.2977 78.0494H65.3632L68.2711 59.7052ZM64.295 84.4403H72.3659L73.6715 93.9083H80.7929L72.9 51.184H63.7609L55.868 93.9083H62.9894L64.295 84.4403Z" fill="#6B8293"/>
<path d="M92.7677 78.4044H92.6491L88.1388 51.184H81.2548L89.3851 93.9083H95.557L100.542 65.6818H100.661L106.002 93.9083H112.174L119.71 51.184H112.826L108.732 78.4044H108.613L103.628 51.184H97.5747L92.7677 78.4044Z" fill="#6B8293"/>
</svg>
